:version 1.10
:name ASF
:units
  mass 1
  length 1
  angle deg
:documentation
  ASF file generated by Kaydara
:root
  axis xyz
  order  tx ty tz rx ry rz
  position 0 0 0
  orientation 0 0 0
:bonedata
  begin
    id 1
    name RightUpLegDummy
    direction -0.718183 -0.695806 0.00816078
    length 4.904
    axis 0 0 0 xyz
  end
  begin
    id 2
    name RightUpLeg
    direction -0.0736652 -0.994202 0.0783343
    length 17.4976
    axis -2.72909 -3.00389 -4.00133 xyz
    dof rx ry rz
  end
  begin
    id 3
    name RightLeg
    direction -0.0389037 -0.994596 -0.0962598
    length 16.5821
    axis 3.95836 -18.5909 -4.46993 xyz
    dof rx ry rz
  end
  begin
    id 4
    name RightFoot
    direction -0.311643 -0.412678 0.855906
    length 3.77069
    axis -1.99483 -18.8351 -3.27644 xyz
    dof rx ry rz
  end
  begin
    id 5
    name RightToes
    direction -0.317852 0.0389852 0.947339
    length 3.85082
    axis -2.00228 -18.1713 -3.25211 xyz
    dof rx ry rz
  end
  begin
    id 6
    name SpineDummy
    direction 8.3039e-015 1 4.44677e-016
    length 4.6813
    axis 0 0 0 xyz
  end
  begin
    id 7
    name Spine
    direction -0.000262373 0.999988 0.00493267
    length 10.1015
    axis -0.00246081 0.00062579 0.0150362 xyz
    dof rx ry rz
  end
  begin
    id 8
    name Spine1
    direction 0 0 0
    length 0
    axis -0.00349562 0.000650293 0.0196666 xyz
    dof rx ry rz
  end
  begin
    id 9
    name HEadDummy
    direction -0.000343232 0.999999 0.00123745
    length 3.43865
    axis -0.00349562 0.000650293 0.0196666 xyz
  end
  begin
    id 10
    name HEad
    direction -0.0461221 0.980933 0.188796
    length 5.12695
    axis -0.00351404 -7.04812 0.0199272 xyz
    dof rx ry rz
  end
  begin
    id 11
    name LeftShoulder1Dummy
    direction 0.998904 -0.0399089 -0.0244534
    length 3.5433
    axis -0.00349562 0.000650293 0.0196666 xyz
  end
  begin
    id 12
    name LeftShoulder1
    direction 0.99951 1.64443e-005 0.0312999
    length 4.05031
    axis -0.00349562 0.000650293 0.0196666 xyz
    dof rx ry rz
  end
  begin
    id 13
    name LeftArm
    direction 0.984791 0.0515299 0.165927
    length 12.9126
    axis -64.823 -10.7743 5.20463 xyz
    dof rx ry rz
  end
  begin
    id 14
    name LeftForeArm
    direction 0.984968 0.0534808 0.16425
    length 10.8596
    axis -30.0462 -7.70601 1.87451 xyz
    dof rx ry rz
  end
  begin
    id 15
    name LeftHand
    direction 0.975871 0.0289682 0.216418
    length 6.62295
    axis -20.1348 -6.98077 1.86072 xyz
    dof rx ry rz
  end
  begin
    id 16
    name RightShoulderDummy
    direction -0.998877 -0.0405946 -0.0244307
    length 3.5433
    axis -0.00349562 0.000650293 0.0196666 xyz
  end
  begin
    id 17
    name RightShoulder
    direction -0.998933 -0.0249743 -0.0388558
    length 4.05031
    axis -0.0205316 -4.02113 1.41395 xyz
    dof rx ry rz
  end
  begin
    id 18
    name RightArm
    direction -0.997559 0.068664 0.0127103
    length 12.9638
    axis -67.3882 1.84188 -6.15987 xyz
    dof rx ry rz
  end
  begin
    id 19
    name RightForeArm
    direction -0.991508 0.0912848 0.0926241
    length 10.8312
    axis -22.1975 3.41087 -4.28711 xyz
    dof rx ry rz
  end
  begin
    id 20
    name RightHand
    direction -0.989262 0.0600788 0.133232
    length 6.57864
    axis -12.2911 2.17515 -4.39675 xyz
    dof rx ry rz
  end
  begin
    id 21
    name LeftUpLegDummy
    direction 0.718183 -0.695806 0.00816078
    length 4.904
    axis 0 0 0 xyz
  end
  begin
    id 22
    name LeftUpLeg
    direction 0.0831398 -0.99469 0.0606531
    length 17.4976
    axis -1.71016 2.29552 4.63832 xyz
    dof rx ry rz
  end
  begin
    id 23
    name LeftLeg
    direction 0.0498442 -0.991778 -0.117862
    length 16.5821
    axis 5.13757 15.5727 5.13348 xyz
    dof rx ry rz
  end
  begin
    id 24
    name LeftFoot
    direction 0.269026 -0.433896 0.85986
    length 3.77069
    axis -0.576502 15.6961 4.10267 xyz
    dof rx ry rz
  end
  begin
    id 25
    name LeftToes
    direction 0.277311 0.0251143 0.960452
    length 3.85048
    axis -0.576502 15.6961 4.10267 xyz
    dof rx ry rz
  end
:hierarchy
  begin
    root RightUpLegDummy SpineDummy LeftUpLegDummy
    RightUpLegDummy RightUpLeg
    RightUpLeg RightLeg
    RightLeg RightFoot
    RightFoot RightToes
    SpineDummy Spine
    Spine Spine1
    Spine1 HEadDummy LeftShoulder1Dummy RightShoulderDummy
    HEadDummy HEad
    LeftShoulder1Dummy LeftShoulder1
    LeftShoulder1 LeftArm
    LeftArm LeftForeArm
    LeftForeArm LeftHand
    RightShoulderDummy RightShoulder
    RightShoulder RightArm
    RightArm RightForeArm
    RightForeArm RightHand
    LeftUpLegDummy LeftUpLeg
    LeftUpLeg LeftLeg
    LeftLeg LeftFoot
    LeftFoot LeftToes
  end

:SAMPLES-PER-SECOND 30
:FULLY-SPECIFIED
:DEGREES
75
root  -2.35433 39.6191 -3.24532 0.851252 4.10503 5.26433
RightUpLeg  -10.246 -17.9768 -8.37018
RightLeg  18.4463 4.11585 -5.38046
RightFoot  -7.75939 -0.216176 4.91627
RightToes  1.74624e-010 -3.18055e-015 -2.98177e-016
Spine  2.42574 -1.77775 -5.64721
Spine1  2.57957 -1.41343 -2.90616
HEad  -18.6717 5.17277 -9.02898
LeftShoulder1  -3.88251e-019 9.70628e-020 -3.87848e-018
LeftArm  -4.20374 61.0009 -59.0167
LeftForeArm  -3.38543 -28.212 4.87071
LeftHand  -1.10708 -5.35846 12.6496
RightShoulder  7.20851 10.1851 34.6675
RightArm  17.3407 -61.4903 1.76223
RightForeArm  -3.47454 20.886 -10.9886
RightHand  -2.91095 5.1491 -31.0823
LeftUpLeg  -5.89327 -6.17191 -10.4846
LeftLeg  8.68896 6.48397 3.32904
LeftFoot  -3.93488 -0.372178 4.51425
LeftToes  7.37594e-011 2.64622e-011 -6.25182e-011
76
root  -2.56876 39.7381 -3.2467 0.824683 3.78184 4.86636
RightUpLeg  -8.52641 -16.0794 -7.63308
RightLeg  15.1933 2.79981 -4.78006
RightFoot  -6.53505 -0.327451 5.86341
RightToes  1.74624e-010 -3.18055e-015 -2.98177e-016
Spine  1.82562 -1.33976 -3.77763
Spine1  3.10698 -0.647065 -4.06105
HEad  -17.6683 5.1471 -8.53453
LeftShoulder1  -3.88251e-019 9.70628e-020 -3.87848e-018
LeftArm  -19.3655 58.9607 -58.449
LeftForeArm  -6.87036 -18.3152 -0.735152
LeftHand  -1.04044 -3.14398 15.0634
RightShoulder  7.24739 10.2321 34.7634
RightArm  15.1844 -60.6677 4.61311
RightForeArm  0.775301 19.5005 -10.1435
RightHand  -3.17857 5.97475 -31.4834
LeftUpLeg  -5.30407 -6.18515 -9.83448
LeftLeg  7.37201 6.77658 3.22541
LeftFoot  -3.11415 -0.377902 4.23341
LeftToes  7.37594e-011 2.64622e-011 -6.25182e-011
77
root  -2.80388 39.85 -3.27301 0.574223 2.51837 4.20011
RightUpLeg  -7.5044 -12.0945 -6.69269
RightLeg  13.2632 -0.0900563 -4.32776
RightFoot  -5.6932 -0.376312 5.89989
RightToes  1.74624e-010 -3.18055e-015 -2.98177e-016
Spine  1.71076 -0.646444 -1.27112
Spine1  3.38085 0.431065 -5.65201
HEad  -16.8438 5.05661 -8.03649
LeftShoulder1  -3.88251e-019 9.70628e-020 -3.87848e-018
LeftArm  -27.0933 57.7601 -58.4406
LeftForeArm  -21.6927 -10.5038 0.0800018
LeftHand  -0.66766 0.521971 17.4486
RightShoulder  7.30165 10.2847 34.9256
RightArm  10.4924 -58.492 8.99573
RightForeArm  7.2276 16.6265 -8.45505
RightHand  -3.45002 6.99523 -31.3842
LeftUpLeg  -4.70572 -5.89558 -8.85526
LeftLeg  6.47139 7.66527 3.31432
LeftFoot  -2.53737 -0.347973 3.69218
LeftToes  7.37594e-011 2.64622e-011 -6.25182e-011
78
root  -3.06324 39.9074 -3.31897 0.175745 0.882332 3.54099
RightUpLeg  -7.07252 -9.69783 -5.59684
RightLeg  12.3602 -1.07623 -3.92338
RightFoot  -5.14342 -0.351986 5.12196
RightToes  1.74624e-010 -3.18055e-015 -2.98177e-016
Spine  1.90532 -0.0754143 0.738004
Spine1  3.71218 1.27336 -6.74868
HEad  -17.0616 5.45753 -7.87777
LeftShoulder1  -3.88251e-019 9.70628e-020 -3.87848e-018
LeftArm  -31.2478 58.0558 -58.7149
LeftForeArm  -34.145 -6.58375 1.99494
LeftHand  -0.359998 2.9616 20.3286
RightShoulder  7.33438 10.3271 34.999
RightArm  5.39117 -55.1848 14.0767
RightForeArm  14.7614 13.229 -7.0761
RightHand  -3.7141 8.02514 -31.2191
LeftUpLeg  -4.35132 -5.36979 -7.78531
LeftLeg  6.46306 8.6513 3.60547
LeftFoot  -2.43799 -0.285214 2.9799
LeftToes  7.37594e-011 2.64622e-011 -6.25182e-011
79
root  -3.34676 39.9256 -3.37361 -0.347804 -0.816456 3.01778
RightUpLeg  -6.62651 -8.70082 -4.68531
RightLeg  11.7531 -0.563623 -3.22493
RightFoot  -4.65355 -0.309431 4.23661
RightToes  1.74624e-010 -3.18055e-015 -2.98177e-016
Spine  2.14423 0.320465 1.82395
Spine1  4.34467 1.7522 -6.85099
HEad  -18.1507 6.374 -8.21696
LeftShoulder1  -3.88251e-019 9.70628e-020 -3.87848e-018
LeftArm  -33.0745 59.9034 -59.2115
LeftForeArm  -39.8389 -6.00222 3.05485
LeftHand  -0.293354 3.44197 22.0011
RightShoulder  7.34617 10.3621 34.9814
RightArm  2.48921 -51.478 18.5275
RightForeArm  20.1304 11.2017 -6.50635
RightHand  -3.8425 8.64845 -30.8949
LeftUpLeg  -4.04695 -4.69535 -6.75371
LeftLeg  6.96552 9.52176 3.96215
LeftFoot  -2.58705 -0.216243 2.24527
LeftToes  7.37594e-011 2.64622e-011 -6.25182e-011
80
root  -3.65768 39.9488 -3.4299 -0.915278 -2.41865 2.50546
RightUpLeg  -5.87606 -7.56665 -3.84206
RightLeg  10.9223 -0.340898 -2.34918
RightFoot  -4.19846 -0.273866 3.55264
RightToes  1.74624e-010 -3.18055e-015 -2.98177e-016
Spine  2.44185 0.58423 2.12647
Spine1  4.95638 1.84163 -5.70654
HEad  -19.3669 7.61015 -9.18523
LeftShoulder1  -3.88251e-019 9.70628e-020 -3.87848e-018
LeftArm  -32.5614 62.9267 -59.9002
LeftForeArm  -40.8467 -7.51868 2.88346
LeftHand  -0.324672 3.23992 21.543
RightShoulder  7.35946 10.3821 35.005
RightArm  1.8653 -47.8662 21.5402
RightForeArm  22.2431 11.5184 -6.17913
RightHand  -3.71709 8.76743 -29.6944
LeftUpLeg  -3.59102 -3.87509 -5.63658
LeftLeg  7.37582 10.1349 4.19398
LeftFoot  -2.66635 -0.150024 1.55396
LeftToes  7.37594e-011 2.64622e-011 -6.25182e-011
81
root  -3.99458 39.9735 -3.47818 -1.26427 -3.88813 1.86784
RightUpLeg  -5.23906 -5.73706 -2.72667
RightLeg  10.0482 -0.976443 -1.70356
RightFoot  -3.87397 -0.229422 2.87115
RightToes  1.74624e-010 -3.18055e-015 -2.98177e-016
Spine  2.73654 0.721941 2.00058
Spine1  5.07844 1.5592 -3.51538
HEad  -20.1402 9.12473 -10.7392
LeftShoulder1  -3.88251e-019 9.70628e-020 -3.87848e-018
LeftArm  -31.2172 66.5138 -60.9767
LeftForeArm  -39.6137 -9.77453 1.98844
LeftHand  -0.329068 3.03729 19.526
RightShoulder  7.387 10.3798 35.1507
RightArm  3.19019 -44.5352 23.3755
RightForeArm  21.2111 13.4683 -6.02301
RightHand  -3.35244 8.3846 -27.6098
LeftUpLeg  -3.29532 -2.96698 -4.32996
LeftLeg  7.75009 10.5002 4.40872
LeftFoot  -2.73912 -0.0780098 0.780353
LeftToes  7.37594e-011 2.64622e-011 -6.25182e-011
